PathFileType	4	(X/Y/Z)	D:\TRACE\v60_Jaco2_6-2-23\ArmBody_Mo1_DMP_1-platform.trc
DataRate	CameraRate	NumFrames	NumMarkers	Units	OrigDataRate	OrigDataStartFrame	OrigNumFrames
100.00	100.00	      81	5	mm	100.00	1449	      5792
Frame#	Time	Left_Front			Right_Front			Left_Aft			Right_Aft			Post			
		X1	Y1	Z1	X2	Y2	Z2	X3	Y3	Z3	X4	Y4	Z4	X5	Y5	Z5	

1449	14.480				760.20178	-10.56843	-637.76709	-738.93536	20.80618	475.81476	678.48004	25.35842	577.93042	-15.73365	1276.59436	-1010.47455	
1450	14.490				760.85706	-10.52265	-637.49957	-738.36298	20.42024	476.04459	679.10553	25.24302	577.91071	-15.23739	1276.98364	-1010.00751	
1451	14.500				762.28723	-10.32853	-637.27942	-737.32489	20.24507	476.26782	680.37225	25.20137	578.09418	-14.25487	1277.34119	-1009.31610	
1452	14.510				763.33057	-10.00311	-637.34637	-736.11548	19.92689	476.30460	681.20947	24.86744	578.09680	-13.18162	1277.91626	-1008.89514	
1453	14.520				763.53259	-9.65625	-637.39178	-735.40100	19.65788	476.48767	681.56097	24.45918	578.19635	-12.66549	1278.31250	-1008.43890	
1454	14.530				764.55688	-9.20165	-637.22699	-734.75781	19.84045	476.42935	682.85748	24.37617	578.35211	-11.85845	1278.77966	-1007.86572	
1455	14.540				765.95465	-8.94769	-637.35767	-733.89935	19.65808	476.54999	683.90228	24.19101	578.55084	-10.99703	1279.23401	-1007.24567	
1456	14.550				766.39075	-8.66054	-637.43231	-732.72528	19.21509	476.46649	684.91766	24.13834	578.63922	-9.88800	1279.74707	-1006.71722	
1457	14.560				767.11676	-8.29011	-637.12354	-731.59009	18.87082	476.54300	685.67212	23.75663	578.74255	-8.93981	1280.19788	-1006.08325	
1458	14.570				768.41656	-8.17658	-637.04688	-731.24445	19.10432	476.53989	686.45715	23.34707	578.83124	-8.02586	1280.58521	-1005.28461	
1459	14.580				769.51282	-7.89746	-637.03595	-730.22546	18.67856	476.62863	687.49188	23.29307	578.87903	-7.15271	1280.86182	-1004.56812	
1460	14.590				770.24683	-7.50901	-636.79834	-729.22241	18.43240	476.94907	688.58069	22.92689	578.91821	-6.41708	1281.36719	-1003.69458	
1461	14.600				771.07928	-7.07068	-636.75024	-728.08221	18.06059	477.21005	689.21417	22.71803	578.99811	-5.56618	1281.99548	-1002.90564	
1462	14.610				772.50952	-6.67570	-636.64441	-726.70532	17.42412	477.28851	690.23419	22.44859	579.12537	-4.58148	1282.61023	-1002.20605	
1463	14.620				773.17151	-6.41975	-636.59845	-726.34930	17.45779	477.45981	691.72467	22.65528	579.45074	-3.80180	1283.01086	-1001.52161	
1464	14.630				774.14575	-6.01309	-636.22870	-725.64832	17.62762	477.18295	692.14447	21.89589	579.26355	-2.53720	1283.55920	-1000.80853	
1465	14.640				775.10229	-5.69681	-636.38385	-724.37524	17.19059	477.36465	693.09772	21.63370	579.47668	-1.50521	1284.15369	-1000.02039	
1466	14.650				776.06488	-5.36730	-636.43549	-723.60706	17.00965	477.54816	693.96381	21.34450	579.63269	-0.62765	1284.61707	-999.36816	
1467	14.660				776.80725	-4.93083	-636.12952	-722.45624	16.97880	477.43146	695.13275	21.20745	579.72583	0.27527	1285.24060	-998.68262	
1468	14.670				777.88544	-4.35017	-636.07837	-721.71704	16.76053	477.46790	695.91779	20.72863	579.59357	1.24733	1285.75464	-997.88239	
1469	14.680				778.96021	-4.13744	-636.10492	-720.80585	16.33858	477.64914	696.77264	20.31501	579.74261	1.90430	1286.31189	-996.96466	
1470	14.690				780.01483	-3.80242	-635.77710	-719.36359	15.51783	477.92889	697.91833	20.17987	579.87085	2.81302	1286.82556	-996.11646	
1471	14.700				780.76782	-3.33207	-635.65918	-718.63727	15.41779	478.26108	698.75043	19.80803	579.93835	3.98484	1287.62329	-995.16925	
1472	14.710				781.91858	-3.00319	-635.60583	-717.41864	15.00552	478.22647	699.99200	19.72736	580.20935	4.73166	1287.99219	-994.39575	
1473	14.720				782.89978	-2.58413	-635.57092	-716.94269	15.45345	478.13748	700.85950	19.38657	580.23065	5.90122	1288.72253	-993.32697	
1474	14.730				783.52765	-2.38360	-635.48889	-715.82928	15.03602	478.20941	701.75476	18.96001	580.42041	6.64236	1289.30383	-992.76636	
1475	14.740				784.96991	-1.97157	-635.22565	-714.60834	14.31955	478.51093	702.79437	18.68927	580.41577	7.59038	1289.82666	-991.77802	
1476	14.750				785.81702	-1.59129	-635.27161	-714.25793	14.63810	478.40195	703.70154	18.23664	580.60889	9.04591	1290.31616	-990.80145	
1477	14.760				786.45483	-1.07976	-635.22009	-712.79858	14.19677	478.39731	704.79077	18.04509	580.64337	9.88085	1291.06421	-989.86993	
1478	14.770				787.93011	-0.54616	-634.99432	-712.07745	13.95218	478.63034	705.83478	17.71450	580.76965	10.77651	1291.73193	-989.17157	
1479	14.780				788.87506	-0.21985	-634.87524	-710.77258	13.31797	478.97873	706.45667	17.20519	580.86517	11.93938	1292.35864	-988.10925	
1480	14.790				789.66095	0.19911	-634.80548	-709.64685	12.71644	479.07144	707.53729	17.02066	581.02527	12.52723	1293.02637	-987.33435	
1481	14.800				790.60767	0.50120	-634.76422	-709.48492	12.94346	479.11804	708.44519	16.50893	581.23480	13.36674	1293.70508	-986.28540	
1482	14.810				791.93396	0.86680	-634.59100	-707.98608	12.49444	479.16797	709.60376	16.28366	581.37415	14.22665	1294.27246	-985.39941	
1483	14.820				792.38312	1.52953	-634.52313	-706.96448	12.23576	479.58612	710.59155	15.98229	581.51117	15.36310	1295.09351	-984.45001	
1484	14.830				793.62421	1.96084	-634.24744	-706.01019	11.89511	479.62762	711.27905	15.46304	581.54657	16.27667	1295.60693	-983.49463	
1485	14.840				794.74371	2.50734	-634.06250	-705.18433	11.86564	479.37238	711.96869	15.11114	581.70947	17.29836	1296.41711	-982.44763	
1486	14.850				795.21515	2.93641	-634.21381	-704.43768	11.37686	479.67328	713.20282	14.71346	581.69952	18.16985	1296.96375	-981.42072	
1487	14.860				796.11731	3.45259	-634.10834	-703.26166	10.93838	479.98965	714.17596	14.43202	581.84052	18.89047	1297.59656	-980.48517	
1488	14.870				797.50104	3.90428	-633.95911	-702.14886	10.47348	480.07224	715.15686	14.03538	581.91583	20.25856	1298.35461	-979.37555	
1489	14.880				798.06427	4.08318	-633.99213	-701.61279	10.69581	479.96399	715.82849	13.58936	582.11145	20.87713	1298.95728	-978.46149	
1490	14.890				799.13824	4.48697	-633.50000	-700.45807	10.18574	480.04559	716.97351	13.27602	582.27295	21.71901	1299.82800	-977.44122	
1491	14.900				800.20911	5.01661	-633.59180	-699.34393	9.48187	480.33713	718.04608	12.89306	582.41022	22.86026	1300.42712	-976.41595	
1492	14.910				801.07965	5.45336	-633.65668	-698.37354	9.08546	480.62976	718.68896	12.43989	582.57397	24.17533	1301.10669	-975.28253	
1493	14.920				801.98260	5.91617	-633.18457	-697.82782	9.41224	480.24130	719.94977	12.10644	582.57770	24.47153	1301.96875	-974.40167	
1494	14.930				802.89380	6.59001	-633.21851	-696.95819	8.97717	480.46341	720.46191	11.69473	582.73456	25.33052	1302.54065	-973.27496	
1495	14.940				803.82520	7.06657	-633.33209	-696.02020	8.71319	480.59201	721.43683	11.10600	582.78741	26.32077	1303.51221	-972.34381	
1496	14.950				804.64606	7.60194	-633.04474	-695.27045	8.37526	480.67517	722.48553	10.90721	582.88153	27.31837	1304.06165	-971.23236	
1497	14.960				805.47388	8.07192	-632.77924	-694.51208	8.12876	480.66660	723.21881	10.41862	583.10822	28.21551	1304.79126	-969.89752	
1498	14.970				806.37494	8.37193	-632.76428	-693.40649	7.80059	480.83557	724.02765	10.07067	583.37262	29.01903	1305.47229	-968.70020	
1499	14.980				807.41205	8.93921	-632.64392	-692.29425	7.22898	481.11731	725.15283	9.86535	583.54968	30.18486	1306.24890	-967.77094	
1500	14.990				808.25934	9.55785	-632.56403	-691.67969	6.98719	481.20508	725.99591	9.35810	583.62970	30.86938	1307.07031	-966.61499	
1501	15.000				809.00616	9.91593	-632.38354	-690.74597	6.85891	481.25934	727.07184	9.00498	583.60645	31.61402	1307.72937	-965.47400	
1502	15.010				809.97058	10.32346	-632.32556	-690.02979	6.31568	481.45834	727.83252	8.55803	583.78748	32.43077	1308.46155	-964.29614	
1503	15.020				810.87787	10.83696	-632.14111	-688.78632	5.47915	481.90250	728.42017	8.06178	583.93335	33.00964	1308.96655	-963.30804	
1504	15.030				811.50110	11.30332	-631.99945	-688.10028	5.79677	481.75903	728.87451	7.57794	584.02338	34.04434	1309.87268	-962.25116	
1505	15.040				812.25873	12.02987	-631.89813	-687.44580	5.67756	481.73816	730.15582	7.28586	584.20331	34.85123	1310.62158	-961.29510	
1506	15.050				813.36316	12.68850	-631.67749	-686.62781	5.07677	481.86932	730.86743	6.88822	584.12970	35.73271	1311.47876	-960.30292	
1507	15.060				814.00110	12.94477	-631.62384	-685.77411	4.62287	482.03644	732.87531	7.34509	584.59351	36.55458	1312.08264	-959.13739	
1508	15.070				814.76178	13.43705	-631.36469	-685.00824	4.33353	482.22449	732.81042	6.12961	584.52069	37.25680	1312.84424	-958.16992	
1509	15.080				815.51013	13.84826	-631.35413	-684.36096	3.96632	482.37674	733.34003	5.72977	584.73376	38.08555	1313.55127	-957.10010	
1510	15.090				816.63074	14.35837	-631.07819	-683.44611	3.43361	482.48022	734.08881	5.20608	584.86554	38.83242	1314.32983	-955.93237	
1511	15.100				817.27783	14.91865	-631.08984	-682.76868	3.06923	482.55685	734.92450	4.95443	584.90289	39.40112	1315.29919	-954.69470	
1512	15.110				817.72760	15.44555	-630.96887	-682.10773	2.66131	482.59839	735.59387	4.53318	585.02313	40.03200	1315.79016	-953.45428	
1513	15.120				818.69220	16.04534	-630.60394	-681.34161	2.51843	482.68283	736.48688	4.10281	585.15967	40.97186	1316.57483	-952.31659	
1514	15.130				819.43378	16.23682	-630.71808	-680.72070	2.16985	482.99063	737.30640	3.83988	585.23810	41.46856	1317.20984	-950.88751	
1515	15.140				820.08911	16.77182	-630.57190	-679.90100	1.79007	483.06836	737.96564	3.37450	585.46820	42.26847	1317.99121	-949.81580	
1516	15.150				820.89905	17.43459	-630.18494	-679.05743	1.35294	483.19598	738.50006	2.98964	585.57776	43.07986	1318.64001	-948.51514	
1517	15.160				821.16132	17.78085	-630.24243	-678.25385	0.88646	483.20023	738.84882	2.46105	585.67737	43.64286	1319.50549	-947.57843	
1518	15.170				821.78558	18.30273	-630.28448	-677.95154	0.92219	483.25662	740.03937	2.14737	585.84735	44.20399	1320.04871	-946.50787	
1519	15.180				822.64960	19.11246	-630.09741	-677.30652	0.50474	483.45432	740.48523	1.87439	586.06201	45.03362	1320.89197	-945.45587	
1520	15.190				823.22498	19.50745	-629.92053	-676.67554	0.29973	483.57913	741.16095	1.44875	586.09698	45.56332	1321.55396	-944.55084	
1521	15.200				823.67279	19.77973	-629.91638	-676.08728	-0.11950	483.75027	741.82721	0.95304	586.22241	45.96155	1322.19702	-943.61243	
1522	15.210				824.22595	20.29821	-629.59473	-675.50671	-0.49044	483.69952	742.36749	0.60629	586.34131	46.46159	1322.99927	-942.60925	
1523	15.220				824.86597	20.87153	-629.33502	-675.14288	-0.77169	483.76773	742.87817	0.24042	586.35199	47.12387	1323.60938	-941.64929	
1524	15.230				825.39380	21.23920	-629.44049	-674.53253	-1.21918	484.08054	743.36279	-0.21688	586.59198	47.53405	1324.28918	-940.52405	
1525	15.240				825.86438	21.74628	-629.43219	-673.44989	-2.29283	484.79437	743.72528	-0.58544	586.66345	48.38179	1325.12659	-939.36639	
1526	15.250				826.61432	22.44666	-629.08209	-673.32739	-2.13574	484.57852	744.32690	-0.99286	586.72247	48.75889	1325.55090	-938.43909	
1527	15.260				826.89984	22.93460	-629.06360	-672.74591	-2.57497	484.66000	744.85492	-1.41705	586.77148	49.37154	1326.22400	-937.34344	
1528	15.270				827.24823	23.20321	-628.94989	-672.48114	-2.45900	484.68698	745.16138	-1.78815	586.86139	49.57622	1327.02051	-936.12457	
1529	15.280				827.38409	23.36595	-628.89502	-672.11963	-2.63759	484.57178	745.48578	-2.11226	586.98120	50.04331	1327.50159	-935.02344	
